<?xml version="1.0" encoding="utf-8"?>
<!-- Generator: Adobe Illustrator 17.0.0, SVG Export Plug-In . SVG Version: 6.00 Build 0)  -->
<!DOCTYPE svg PUBLIC "-//W3C//DTD SVG 1.1//EN" "http://www.w3.org/Graphics/SVG/1.1/DTD/svg11.dtd">
<svg version="1.1" xmlns="http://www.w3.org/2000/svg" xmlns:xlink="http://www.w3.org/1999/xlink" x="0px" y="0px" width="1351px"
	 height="657px" viewBox="0 0 1351 657" enable-background="new 0 0 1351 657" xml:space="preserve">
<g id="Layer_1" display="none">
	<linearGradient id="SVGID_1_" gradientUnits="userSpaceOnUse" x1="675.5" y1="5" x2="675.5" y2="537">
		<stop  offset="0" style="stop-color:#270E2E"/>
		<stop  offset="0.543" style="stop-color:#9351A0"/>
		<stop  offset="1" style="stop-color:#FFFFFF"/>
	</linearGradient>
	<path display="inline" fill="url(#SVGID_1_)" d="M1373.685-65.218c-3.314,0-14.217,0-14.217,20.26v-33.521
		c0-20.26-10.968-20.26-14.282-20.26s-14.217,0-14.217,20.26c0-20.26-10.968-20.26-14.282-20.26s-14.217,0-14.217,20.26v50.02
		c0-20.26-10.968-20.26-14.282-20.26c-3.314,0-14.217,0-14.217,20.26v-16.499c0-20.26-10.968-20.26-14.282-20.26
		s-14.217,0-14.217,20.26v-56.997c0-20.26-10.968-20.26-14.282-20.26c-3.314,0-14.217,0-14.217,20.26
		c0-20.26-10.968-20.26-14.282-20.26s-14.217,0-14.217,20.26v23.476c0-20.26-10.968-20.26-14.282-20.26s-14.217,0-14.217,20.26
		v-23.476c0-20.26-10.968-20.26-14.282-20.26c-3.314,0-14.217,0-14.217,20.26v-55.497c0-20.26-10.968-20.26-14.282-20.26
		s-14.217,0-14.217,20.26V-93.1v3.144c0-20.26-10.968-20.26-14.282-20.26s-14.217,0-14.217,20.26c0-20.26-10.968-20.26-14.282-20.26
		s-14.217,0-14.217,20.26v61.497c0-20.26-10.968-20.26-14.282-20.26c-3.314,0-14.217,0-14.217,20.26v-40.642v-64.353
		c0-20.26-10.968-20.26-14.282-20.26s-14.217,0-14.217,20.26v61.497c0-20.26-10.968-20.26-14.282-20.26
		c-3.314,0-14.217,0-14.217,20.26v26.999c0-20.26-10.968-20.26-14.282-20.26c-3.314,0-14.217,0-14.217,20.26v-33.521
		c0-20.26-10.968-20.26-14.282-20.26s-14.217,0-14.217,20.26v6.522c0-20.26-10.968-20.26-14.282-20.26
		c-3.314,0-14.217,0-14.217,20.26v-17.999c0-20.26-10.968-20.26-14.282-20.26c-3.314,0-14.217,0-14.217,20.26v44.998
		c0-20.26-10.968-20.26-14.282-20.26s-14.217,0-14.217,20.26v-24.143v-64.353c0-20.26-10.968-20.26-14.282-20.26
		c-3.314,0-14.217,0-14.217,20.26v64.353v10.643c0-20.26-10.968-20.26-14.282-20.26c-3.314,0-14.217,0-14.217,20.26v13.499
		c0-20.26-10.968-20.26-14.282-20.26s-14.217,0-14.217,20.26v-24.143v-64.353c0-20.26-10.968-20.26-14.282-20.26
		c-3.314,0-14.217,0-14.217,20.26v64.353v24.143c0-20.26-10.968-20.26-14.282-20.26c-3.314,0-14.217,0-14.217,20.26v28.271
		c0-20.26-10.968-20.26-14.282-20.26c-3.314,0-14.217,0-14.217,20.26v-33.521c0-20.26-10.968-20.26-14.282-20.26
		s-14.217,0-14.217,20.26c0-20.26-10.968-20.26-14.282-20.26c-3.314,0-14.217,0-14.217,20.26v50.02
		c0-20.26-10.968-20.26-14.282-20.26c-3.314,0-14.217,0-14.217,20.26v-16.499c0-20.26-10.968-20.26-14.282-20.26
		s-14.217,0-14.217,20.26v-56.997c0-20.26-10.968-20.26-14.282-20.26c-3.314,0-14.217,0-14.217,20.26
		c0-20.26-10.968-20.26-14.282-20.26c-3.314,0-14.217,0-14.217,20.26v23.476c0-20.26-10.968-20.26-14.282-20.26
		s-14.217,0-14.217,20.26v-23.476c0-20.26-10.968-20.26-14.282-20.26c-3.314,0-14.217,0-14.217,20.26v-55.497
		c0-20.26-10.968-20.26-14.282-20.26c-3.314,0-14.217,0-14.217,20.26v64.353v3.144c0-20.26-10.968-20.26-14.282-20.26
		s-14.217,0-14.217,20.26c0-20.26-10.968-20.26-14.282-20.26c-3.314,0-14.217,0-14.217,20.26v61.497
		c0-20.26-10.968-20.26-14.282-20.26c-3.314,0-14.217,0-14.217,20.26V-40.83v-64.353c0-20.26-10.968-20.26-14.282-20.26
		s-14.217,0-14.217,20.26v61.497c0-20.26-10.968-20.26-14.282-20.26c-3.314,0-14.217,0-14.217,20.26v26.999
		c0-20.26-10.968-20.26-14.282-20.26c-3.314,0-14.217,0-14.217,20.26v-33.521c0-20.26-10.968-20.26-14.282-20.26
		s-14.217,0-14.217,20.26v6.522c0-20.26-10.968-20.26-14.282-20.26c-3.314,0-14.217,0-14.217,20.26v-17.999
		c0-20.26-10.968-20.26-14.282-20.26c-3.314,0-14.217,0-14.217,20.26v44.998c0-20.26-10.968-20.26-14.282-20.26
		s-14.217,0-14.217,20.26V-40.83v-64.353c0-20.26-10.968-20.26-14.282-20.26c-3.314,0-14.217,0-14.217,20.26v64.353v10.643
		c0-20.26-10.968-20.26-14.282-20.26c-3.314,0-14.217,0-14.217,20.26v13.499c0-20.26-10.968-20.26-14.282-20.26
		s-14.217,0-14.217,20.26V-40.83v-64.353c0-20.26-10.968-20.26-14.282-20.26c-3.314,0-14.217,0-14.217,20.26v64.353v24.143
		c0-20.26-10.968-20.26-14.282-20.26c-3.314,0-14.217,0-14.217,20.26v64.353v379.723v64.353c0,20.26,10.903,20.26,14.217,20.26
		c3.314,0,14.282,0,14.282-20.26v-64.353v-24.143c0,3.67,0.361,6.667,0.967,9.128v-19.935c0-13.221,10.903-13.221,14.217-13.221
		s14.282,0,14.282,13.221v41.995v66.435c2.738,11.124,10.537,11.132,13.25,11.132c3.214,0,13.627-0.002,14.251-18.487v-59.08
		v-41.995c0-13.221,10.903-13.221,14.217-13.221s14.282,0,14.282,13.221v41.995v45.581c0.019-0.574,0.03-1.163,0.03-1.773v-64.353
		v-10.643c0,20.26,10.903,20.26,14.217,20.26c3.291,0,14.126-0.01,14.275-19.854v-6.38c0-13.221,10.903-13.221,14.217-13.221
		s14.282,0,14.282,13.221v41.995v52.88c0.001-0.138,0.007-0.266,0.007-0.406v52.497c0,20.26,10.903,20.26,14.217,20.26
		c3.314,0,14.282,0,14.282-20.26v-64.353v-15.143c0,1.527,0.069,2.925,0.185,4.231v-20.872c0-13.221,10.903-13.221,14.217-13.221
		s14.282,0,14.282,13.221v41.995v96.848c1.422,16.017,10.968,16.03,14.032,16.03c3.314,0,14.282,0,14.282-20.26v-64.353v-26.62
		c0,1.543,0.07,2.956,0.188,4.273v-31.576c0-13.221,10.903-13.221,14.217-13.221c3.314,0,14.282,0,14.282,13.221v4.578
		c1.436,15.973,10.967,15.986,14.029,15.986c3.094,0,12.858-0.006,14.139-16.497v-34.072v-41.995
		c0-13.221,10.903-13.221,14.217-13.221c3.314,0,14.282,0,14.282,13.221v14.57c0.091-1.171,0.142-2.419,0.142-3.763v40.642v64.353
		c0,20.26,10.903,20.26,14.217,20.26c3.314,0,14.282,0,14.282-20.26v21.143v64.353c0,1.566,0.072,2.997,0.194,4.33v-107.97v-41.995
		c0-13.221,10.903-13.221,14.217-13.221c3.314,0,14.282,0,14.282,13.221v2.972c1.453,15.916,10.966,15.929,14.023,15.929
		c3.185,0,13.439-0.01,14.228-18.008v-33.399v-41.995c0-13.221,10.903-13.221,14.217-13.221c3.314,0,14.282,0,14.282,13.221v7.896
		c0.032-0.724,0.054-1.467,0.054-2.251v55.497v94.639v64.353c0,20.26,10.903,20.26,14.217,20.26c3.188,0,13.458-0.009,14.231-18.057
		V495.597v-41.995c0-13.221,10.903-13.221,14.217-13.221c3.314,0,14.282,0,14.282,13.221v6.821c0.03-0.709,0.051-1.436,0.051-2.202
		v21.665v64.353c0,20.26,10.903,20.26,14.217,20.26c3.191,0,13.478-0.008,14.233-18.107v-76.128v-41.995
		c0-13.221,10.903-13.221,14.217-13.221c3.314,0,14.282,0,14.282,13.221v8.629c0.029-0.694,0.048-1.405,0.048-2.153v56.997
		c0,20.26,10.903,20.26,14.217,20.26c3.148,0,13.194-0.013,14.194-17.377v-7.522c0-13.221,10.903-13.221,14.217-13.221
		s14.282,0,14.282,13.221v24.02c0.053-0.916,0.087-1.866,0.087-2.881v3.144v64.353c0,20.26,10.903,20.26,14.217,20.26
		c3.314,0,14.282,0,14.282-20.26v-64.353v-53.164c0,0.982,0.033,1.902,0.082,2.791v-6.743c0-13.221,10.903-13.221,14.217-13.221
		c3.314,0,14.282,0,14.282,13.221v40.264c0.964,17.455,10.982,17.469,14.135,17.469c3.314,0,14.282,0,14.282-20.26v-28.271v-43.207
		v-41.995c0-13.221,10.903-13.221,14.217-13.221s14.282,0,14.282,13.221v-3.294c0,20.26,10.903,20.26,14.217,20.26
		c3.202,0,13.547-0.004,14.243-18.279v-3.021c0-13.221,10.903-13.221,14.217-13.221c3.314,0,14.282,0,14.282,13.221v41.995v49.521
		c0.024-0.639,0.039-1.296,0.039-1.981v-13.499c0,20.26,10.903,20.26,14.217,20.26c3.314,0,14.282,0,14.282-20.26v-64.353v-10.643
		c0,0.703,0.016,1.377,0.042,2.032c0.675-11.958,10.976-11.96,14.181-11.96c3.197,0,13.518,0.004,14.239,11.882
		c0.024-0.631,0.038-1.279,0.038-1.954v3.094c0.001,0.068,0.005,0.131,0.005,0.2v41.995v43.515
		c0.113,19.944,10.915,19.952,14.212,19.952c3.314,0,14.282,0,14.282-20.26v52.497c0,0.16,0.007,0.308,0.008,0.466v-35.92v-41.995
		c0-13.221,10.903-13.221,14.217-13.221c3.288,0,14.104,0.007,14.274,12.919v-1.745c0,20.26,10.903,20.26,14.217,20.26
		c3.314,0,14.282,0,14.282-20.26v53.619v64.353c0,0.213,0.008,0.411,0.011,0.62v-73.049v-41.995
		c0-13.221,10.903-13.221,14.217-13.221s14.282,0,14.282,13.221v24.072c0.225,19.627,10.928,19.64,14.206,19.64
		c3.314,0,14.282,0,14.282-20.26v-26.999c0,0.267,0.01,0.517,0.013,0.777v-26.235v-41.995c0-13.221,10.903-13.221,14.217-13.221
		s14.282,0,14.282,13.221v6.73c0.279,19.472,10.934,19.486,14.204,19.486c3.314,0,14.282,0,14.282-20.26v40.642v64.353
		c0,20.26,10.903,20.26,14.217,20.26c3.314,0,14.282,0,14.282-20.26v21.143v64.353c0,0.347,0.011,0.674,0.017,1.01V462.014v-41.995
		c0-13.221,10.903-13.221,14.217-13.221c3.258,0,13.905,0.009,14.265,12.571v-0.895c0,20.26,10.903,20.26,14.217,20.26
		s14.282,0,14.282-20.26V354.12v-3.144c0,2.152,0.129,4.063,0.353,5.782v-23.407c0-13.221,10.903-13.221,14.217-13.221
		s14.282,0,14.282,13.221v41.995v195.9c1.884,14.466,10.902,14.479,13.864,14.479c3.314,0,14.282,0,14.282-20.26v-64.353V429.95
		c0,0.453,0.012,0.885,0.022,1.318v-17.249c0-13.221,10.903-13.221,14.217-13.221s14.282,0,14.282,13.221v41.995v61.272
		c0.468,18.93,10.955,18.942,14.195,18.942c3.314,0,14.282,0,14.282-20.26v-64.353v-45.142c0,2.169,0.131,4.092,0.358,5.821v-28.276
		c0-13.221,10.903-13.221,14.217-13.221s14.282,0,14.282,13.221v41.995v43.278c1.895,14.426,10.899,14.439,13.859,14.439
		c3.314,0,14.282,0,14.282-20.26v16.499c0,3.081,0.255,5.688,0.694,7.903v-29.188c0-13.221,10.903-13.221,14.217-13.221
		s14.282,0,14.282,13.221v41.995v54.69c2.45,12.35,10.713,12.355,13.523,12.355c2.988,0,12.198-0.006,13.979-14.864V448.014v-41.995
		c0-13.221,10.903-13.221,14.217-13.221s14.282,0,14.282,13.221v29.327c0.194-1.618,0.303-3.406,0.303-5.395v33.521
		c0,20.26,10.903,20.26,14.217,20.26c3.314,0,14.282,0,14.282-20.26v-64.353V19.394v-64.353
		C1387.967-65.218,1376.999-65.218,1373.685-65.218z"/>
</g>
<g id="Layer_2">
	
		<rect x="985.575" y="-154.885" fill="none" stroke="#4F2260" stroke-width="10" stroke-miterlimit="10" width="409.48" height="409.48"/>
	
		<rect x="821.575" y="487.521" fill="none" stroke="#4F2260" stroke-width="10" stroke-miterlimit="10" width="409.48" height="409.48"/>
	
		<rect x="-37.184" y="434.835" transform="matrix(0.7071 -0.7071 0.7071 0.7071 -403.1718 305.8066)" fill="none" stroke="#4F2260" stroke-width="10" stroke-miterlimit="10" width="409.48" height="409.48"/>
	
		<rect x="485.841" y="459.922" transform="matrix(0.7071 -0.7071 0.7071 0.7071 -222.7775 574.4871)" fill="none" stroke="#4F2260" stroke-width="10" stroke-miterlimit="10" width="192.475" height="192.475"/>
	
		<rect x="630.98" y="346.941" transform="matrix(0.7071 -0.7071 0.7071 0.7071 -78.9555 592.3069)" fill="none" stroke="#4F2260" stroke-width="10" stroke-miterlimit="10" width="89.041" height="89.041"/>
	
		<rect x="1107.473" y="244.602" transform="matrix(8.805552e-004 1 -1 8.805552e-004 1689.3997 -907.0935)" fill="none" stroke="#4F2260" stroke-width="10" stroke-miterlimit="10" width="382.347" height="294.59"/>
	
		<rect x="-360.358" y="101.162" transform="matrix(0.7071 -0.7071 0.7071 0.7071 -261.8847 -20.4422)" fill="none" stroke="#4F2260" stroke-width="10" stroke-miterlimit="10" width="409.48" height="409.48"/>
	
		<rect x="-37.184" y="-222.825" transform="matrix(0.7071 -0.7071 0.7071 0.7071 61.8641 113.1824)" fill="none" stroke="#4F2260" stroke-width="10" stroke-miterlimit="10" width="409.48" height="409.48"/>
	
		<rect x="470.76" y="-400.333" transform="matrix(0.7071 -0.7071 0.7071 0.7071 336.1547 420.3627)" fill="none" stroke="#4F2260" stroke-width="10" stroke-miterlimit="10" width="409.48" height="409.48"/>
</g>
</svg>
