<?xml version="1.0" encoding="utf-8"?>
<!-- Generator: Adobe Illustrator 17.0.0, SVG Export Plug-In . SVG Version: 6.00 Build 0)  -->
<!DOCTYPE svg PUBLIC "-//W3C//DTD SVG 1.1//EN" "http://www.w3.org/Graphics/SVG/1.1/DTD/svg11.dtd">
<svg version="1.1" id="Layer_1" xmlns="http://www.w3.org/2000/svg" xmlns:xlink="http://www.w3.org/1999/xlink" x="0px" y="0px"
	 width="991px" height="657px" viewBox="0 0 991 657" enable-background="new 0 0 991 657" xml:space="preserve">
<rect x="953.575" y="-47.885" fill="none" stroke="#4F2260" stroke-width="10" stroke-miterlimit="10" width="409.48" height="409.48"/>
<rect x="789.575" y="594.521" fill="none" stroke="#4F2260" stroke-width="10" stroke-miterlimit="10" width="409.48" height="409.48"/>
<rect x="-69.184" y="541.835" transform="matrix(0.7071 -0.7071 0.7071 0.7071 -488.2049 314.5188)" fill="none" stroke="#4F2260" stroke-width="10" stroke-miterlimit="10" width="409.48" height="409.48"/>
<rect x="453.841" y="566.922" transform="matrix(0.7071 -0.7071 0.7071 0.7071 -307.8105 583.1993)" fill="none" stroke="#4F2260" stroke-width="10" stroke-miterlimit="10" width="192.475" height="192.475"/>
<rect x="104.844" y="498.283" transform="matrix(0.7071 -0.7071 0.7071 0.7071 -361.494 316.3171)" fill="none" stroke="#4F2260" stroke-width="10" stroke-miterlimit="10" width="192.475" height="192.475"/>
<rect x="298.044" y="156.432" transform="matrix(0.7071 -0.7071 0.7071 0.7071 -41.76 301.0874)" fill="none" stroke="#4F2260" stroke-width="10" stroke-miterlimit="10" width="89.041" height="89.041"/>
<rect x="774.211" y="-134.888" transform="matrix(8.805552e-004 1 -1 8.805552e-004 976.9412 -952.9883)" fill="none" stroke="#4F2260" stroke-width="10" stroke-miterlimit="10" width="382.347" height="294.59"/>
<rect x="-285.019" y="-93.007" transform="matrix(0.7071 -0.7071 0.7071 0.7071 -102.5204 -24.0399)" fill="none" stroke="#4F2260" stroke-width="10" stroke-miterlimit="10" width="409.48" height="409.48"/>
<rect x="-69.184" y="-192.333" transform="matrix(0.7071 -0.7071 0.7071 0.7071 30.9303 99.486)" fill="none" stroke="#4F2260" stroke-width="10" stroke-miterlimit="10" width="409.48" height="409.48"/>
<rect x="438.76" y="-293.333" transform="matrix(0.7071 -0.7071 0.7071 0.7071 251.1217 429.0749)" fill="none" stroke="#4F2260" stroke-width="10" stroke-miterlimit="10" width="409.48" height="409.48"/>
</svg>
