<?xml version="1.0" encoding="utf-8"?>
<!-- Generator: Adobe Illustrator 17.0.0, SVG Export Plug-In . SVG Version: 6.00 Build 0)  -->
<!DOCTYPE svg PUBLIC "-//W3C//DTD SVG 1.1//EN" "http://www.w3.org/Graphics/SVG/1.1/DTD/svg11.dtd">
<svg version="1.1" id="Layer_1" xmlns="http://www.w3.org/2000/svg" xmlns:xlink="http://www.w3.org/1999/xlink" x="0px" y="0px"
	 width="767px" height="657px" viewBox="0 0 767 657" enable-background="new 0 0 767 657" xml:space="preserve">
<rect x="698.575" y="41.115" fill="none" stroke="#4F2260" stroke-width="10" stroke-miterlimit="10" width="409.48" height="409.48"/>
<rect x="534.575" y="683.521" fill="none" stroke="#4F2260" stroke-width="10" stroke-miterlimit="10" width="409.48" height="409.48"/>
<rect x="-324.184" y="630.835" transform="matrix(0.7071 -0.7071 0.7071 0.7071 -625.8251 160.2741)" fill="none" stroke="#4F2260" stroke-width="10" stroke-miterlimit="10" width="409.48" height="409.48"/>
<rect x="198.841" y="655.922" transform="matrix(0.7071 -0.7071 0.7071 0.7071 -445.4307 428.9546)" fill="none" stroke="#4F2260" stroke-width="10" stroke-miterlimit="10" width="192.475" height="192.475"/>
<rect x="-150.156" y="587.283" transform="matrix(0.7071 -0.7071 0.7071 0.7071 -499.1143 162.0724)" fill="none" stroke="#4F2260" stroke-width="10" stroke-miterlimit="10" width="192.475" height="192.475"/>
<rect x="43.044" y="245.432" transform="matrix(0.7071 -0.7071 0.7071 0.7071 -179.3803 146.8426)" fill="none" stroke="#4F2260" stroke-width="10" stroke-miterlimit="10" width="89.041" height="89.041"/>
<rect x="519.211" y="-45.888" transform="matrix(8.805552e-004 1 -1 8.805552e-004 811.1656 -609.0667)" fill="none" stroke="#4F2260" stroke-width="10" stroke-miterlimit="10" width="382.347" height="294.59"/>
<rect x="-540.019" y="-4.007" transform="matrix(0.7071 -0.7071 0.7071 0.7071 -240.1407 -178.2846)" fill="none" stroke="#4F2260" stroke-width="10" stroke-miterlimit="10" width="409.48" height="409.48"/>
<rect x="-324.184" y="-103.333" transform="matrix(0.7071 -0.7071 0.7071 0.7071 -106.6899 -54.7588)" fill="none" stroke="#4F2260" stroke-width="10" stroke-miterlimit="10" width="409.48" height="409.48"/>
<rect x="183.76" y="-204.333" transform="matrix(0.7071 -0.7071 0.7071 0.7071 113.5014 274.8301)" fill="none" stroke="#4F2260" stroke-width="10" stroke-miterlimit="10" width="409.48" height="409.48"/>
</svg>
