<?xml version="1.0" encoding="utf-8"?>
<!-- Generator: Adobe Illustrator 17.0.0, SVG Export Plug-In . SVG Version: 6.00 Build 0)  -->
<!DOCTYPE svg PUBLIC "-//W3C//DTD SVG 1.1//EN" "http://www.w3.org/Graphics/SVG/1.1/DTD/svg11.dtd">
<svg version="1.1" id="Layer_1" xmlns="http://www.w3.org/2000/svg" xmlns:xlink="http://www.w3.org/1999/xlink" x="0px" y="0px"
	 width="575px" height="657px" viewBox="0 0 575 657" enable-background="new 0 0 575 657" xml:space="preserve">
<rect x="340.143" y="-236.92" fill="none" stroke="#4F2260" stroke-width="10" stroke-miterlimit="10" width="409.48" height="409.48"/>
<rect x="111.778" y="677.573" fill="none" stroke="#4F2260" stroke-width="10" stroke-miterlimit="10" width="409.48" height="409.48"/>
<rect x="189.775" y="631.075" fill="none" stroke="#4F2260" stroke-width="10" stroke-miterlimit="10" width="409.48" height="409.48"/>
<rect x="-272.329" y="617.576" fill="none" stroke="#4F2260" stroke-width="10" stroke-miterlimit="10" width="409.48" height="409.48"/>
<rect x="614.074" y="383.327" fill="none" stroke="#4F2260" stroke-width="10" stroke-miterlimit="10" width="409.48" height="409.48"/>
<rect x="-583.489" y="442.796" transform="matrix(0.7071 -0.7071 0.7071 0.7071 -568.8103 -78.1572)" fill="none" stroke="#4F2260" stroke-width="10" stroke-miterlimit="10" width="409.48" height="409.48"/>
<rect x="66.976" y="161.837" transform="matrix(0.7071 -0.7071 0.7071 0.7071 -134.6821 190.9978)" fill="none" stroke="#4F2260" stroke-width="10" stroke-miterlimit="10" width="192.475" height="192.475"/>
<rect x="-230.411" y="437.103" transform="matrix(0.7071 -0.7071 0.7071 0.7071 -395.0049 9.6198)" fill="none" stroke="#4F2260" stroke-width="10" stroke-miterlimit="10" width="89.041" height="89.041"/>
<rect x="401.611" y="25.265" transform="matrix(8.805552e-004 1 -1 8.805552e-004 764.822 -420.3757)" fill="none" stroke="#4F2260" stroke-width="10" stroke-miterlimit="10" width="382.347" height="294.59"/>
<rect x="-906.663" y="109.123" transform="matrix(0.7071 -0.7071 0.7071 0.7071 -427.5232 -404.4061)" fill="none" stroke="#4F2260" stroke-width="10" stroke-miterlimit="10" width="409.48" height="409.48"/>
<rect x="-583.489" y="-214.864" transform="matrix(0.7071 -0.7071 0.7071 0.7071 -103.7743 -270.7815)" fill="none" stroke="#4F2260" stroke-width="10" stroke-miterlimit="10" width="409.48" height="409.48"/>
<rect x="-187.523" y="-173.843" transform="matrix(0.7071 -0.7071 0.7071 0.7071 -16.8045 21.2235)" fill="none" stroke="#4F2260" stroke-width="10" stroke-miterlimit="10" width="409.48" height="409.48"/>
<rect x="-382.507" y="-472.868" transform="matrix(0.7071 -0.7071 0.7071 0.7071 137.5281 -204.2333)" fill="none" stroke="#4F2260" stroke-width="10" stroke-miterlimit="10" width="409.48" height="409.48"/>
</svg>
