<?xml version="1.0" encoding="utf-8"?>
<!-- Generator: Adobe Illustrator 17.0.0, SVG Export Plug-In . SVG Version: 6.00 Build 0)  -->
<!DOCTYPE svg PUBLIC "-//W3C//DTD SVG 1.1//EN" "http://www.w3.org/Graphics/SVG/1.1/DTD/svg11.dtd">
<svg version="1.1" xmlns="http://www.w3.org/2000/svg" xmlns:xlink="http://www.w3.org/1999/xlink" x="0px" y="0px" width="500px"
	 height="500px" viewBox="0 0 500 500" enable-background="new 0 0 500 500" xml:space="preserve">
<g id="Layer_5" display="none">
	<circle display="inline" fill="#0D0D0D" cx="250" cy="252.667" r="247.333"/>
</g>
<g id="Layer_4_copy">
	<g>
		<path fill="#202323" d="M326.833,151.5c0,0,25.167,42.167,30.5,65.167c0,0,0.021,0.358,0.054,1.033
			c-4.596-1-17.301-3.22-37.721-2.7c-26.167,0.667-41,5.333-46.667,8.5c0,0-2.667-1.333-9.333-1.167
			c-6.667-0.167-9.333,1.167-9.333,1.167c-5.667-3.167-20.5-7.833-46.667-8.5C181.5,214.333,168,218.167,168,218.167h-15.167
			c-3.333,2.167-1.333,13.167-1.333,13.167c12.667,1.667,12.5,20.667,15,33.5c2.5,12.833,12.833,22.333,46.167,22.333
			c33.333,0,41-37.667,42-43.5s9-6.167,9-6.167s8,0.333,9,6.167s8.667,43.5,42,43.5c24.803,0,36.866-5.262,42.449-13.241
			c-0.799,12.696-2.252,25.581-4.782,36.408c0,0-19,45-73.333,79.333l-43.667-2.333c0,0-47.667-37-73.667-71.667
			c0,0-12.667-52.333-12.667-111.333l12.667-10c0,0,8.333-44.333,19-67.333h12.667c0,0-27-25-34.333-40l15-30.333
			c0,0-75,50.667-79.333,114l7.631-15.262c-2.31,4.833-14.35,33.445-1.631,81.595c14,53,40,59.333,40,59.333l11.667,1l5,18.333
			c0,0,5.137,5.844,12.788,14.396l2.298,50.381l-14.086,22.89L134,425.667L282.667,501L366,441.667l-22.667-23.644l-8.833-22.69
			l-2.571-45.102c11.454-13.329,21.579-27.64,25.737-40.231v-10c0,0,9.583,6.333,27.083-20.667s18.25-48.25,9.25-69.5l9.75-35.25
			C403.75,174.583,364.5,189.667,326.833,151.5z M238.167,272.5c-9.526,14.502-47.667,13.833-57.417,5.583s-15.75-20.5-11.25-47.75
			c0,0,5-9.5,19.25-11.75s36.75-1,51.75,5.875S247.693,257.998,238.167,272.5z M135.75,289.583c-20.5-14-35.083-52.583-33.25-65.75
			c1.833-13.167,11.75-8.25,11.75-8.25c-10,41.75,20.5,58,20.5,58c-23.25-24.283-11.5-46.75-11.5-46.75l26,57.25l1.75,9
			C144.75,292.456,135.75,289.583,135.75,289.583z M166.667,407l6.472-10.786l0.673,14.763L166.667,407z M321.384,434.126
			l-45.717,33.541l-94.574-52.638L178,356.083l26.204,11.263l0,0c10.799,11.474,20.852,21.7,26.796,26.654l53,3
			c0,0,9.362-7.692,21.499-19.23l18.251-11.186L321.384,434.126z M339.194,421.059l-11.121,8.159L329,403.583L339.194,421.059z
			 M362.667,218c0.62,0.024,1.207,0.086,1.778,0.167h-1.778C362.667,218.058,362.667,218,362.667,218z M357.736,260.646
			c-2.11,7.872-6.131,13.189-11.152,17.437c-9.75,8.25-47.89,8.919-57.417-5.583s-17.333-41.167-2.333-48.042
			s37.5-8.125,51.75-5.875c14.23,2.247,19.235,11.722,19.249,11.748C358.017,238.289,358.103,249.026,357.736,260.646z
			 M365.333,296.667l-5.667-2c1.218-9.202,1.941-23.568,2.371-37.389c1.668-11.677,3.457-24.584,13.796-25.944
			c0,0,0.042-0.234,0.103-0.631C379.162,246.951,370,273,370,273c15.667-12,13-42.667,13-42.667
			C397.667,277.333,365.333,296.667,365.333,296.667z"/>
		<path fill="#202323" d="M190,118.583c0,0-9.75-26.5-11-37l12.5-24.917c0,0,47.5-34.083,99.5-28.083c0,0-74.25-16.5-110.5,21.25
			l-18.25,36.5C162.25,86.333,175.5,105.583,190,118.583z"/>
		<path fill="#202323" d="M398,141.583c-25.75,15-69.5-19.5-69.5-19.5c43.75,27.75,75.25,12,75.25,12c-5-7.25-14.5-18.25-14.5-18.25
			c-13.5,5-44.75-5.25-54.5-10s-25-9.5-25-9.5c15,1.75,29,9.5,43.75,13.75s34.5,0.75,34.5,0.75l-14.75-19.5
			c-36.75,3.75-70.75-21.25-70.75-21.25c21.75,12.5,67,17.25,67,17.25l-49-46.5c-73-20.5-126.75,15.833-126.75,15.833l-12.5,26.417
			c7,31.25,25,45,25,45c-5.5-17.25-1.75-44.75-1.75-44.75s31-27,60.25-29.75s66.25,13,66.25,13s-50.75-15.5-78.75-7.5
			s-43.75,26.25-43.75,26.25c-6.641,42.011,13.75,46.5,13.75,46.5c-7.75-34.75,21.25-52.25,21.25-52.25c-33,24.5-8,53-8,53
			s10.5-8.5,26-22s41-13.5,41-13.5c-26.5,1.5-48,23.5-48,23.5c10.25,1,20.5-2.25,36.5-6.5s27.25,4.5,27.25,4.5
			c-15.5-10.25-35.25,4.5-35.25,4.5c18.5-2.75,33,14.25,54.25,32s55.706,21.902,66.5,14.75C414.544,162.681,398,141.583,398,141.583
			z"/>
		<path fill="#202323" d="M238,325c0,0-13.5-0.833-20-5.5C211.5,314.833,206.667,332.5,238,325z"/>
		<path fill="#202323" d="M302,317c-4,4.167-16.833,9.881-16.833,9.881C313.333,329.928,306,312.833,302,317z"/>
		<path fill="#202323" d="M236,210.667c12-1-15.797-24-66.065-2.667C169.935,208,224,211.667,236,210.667z"/>
		<path fill="#202323" d="M342.667,210.839c-3.963-5.168-18-9.839-36.74-9.839s-33.594,9-20.76,9.839
			C298,211.679,342.667,210.839,342.667,210.839z"/>
	</g>
	<rect x="41" y="65.455" fill="#202323" width="53.128" height="53.128"/>
	<rect x="441" y="297" fill="#202323" width="19.458" height="19.458"/>
	<rect x="49" y="320.914" fill="#202323" width="42.086" height="42.086"/>
	<rect x="407.406" y="28.23" fill="#202323" width="17.594" height="17.594"/>
	<rect x="403" y="407" fill="#202323" width="76" height="76"/>
	<rect x="86.667" y="417" fill="#202323" width="28" height="28"/>
	<rect x="36" y="60.885" fill="#FDFDFE" width="53.128" height="53.128"/>
	<rect x="31.015" y="202.239" fill="#202323" width="28.668" height="28.668"/>
	<rect x="28.317" y="199.773" fill="#FDFDFE" width="28.668" height="28.668"/>
	<rect x="18.03" y="427.329" fill="#202323" width="28.668" height="28.668"/>
	<rect x="15.332" y="424.863" fill="#FDFDFE" width="28.668" height="28.668"/>
	<rect x="447.473" y="138.156" fill="#202323" width="28.668" height="28.668"/>
	<rect x="444.775" y="135.69" fill="#FDFDFE" width="28.668" height="28.668"/>
	<rect x="436" y="292.43" fill="#FDFDFE" width="19.458" height="19.458"/>
	<rect x="44" y="316.344" fill="#FDFDFE" width="42.086" height="42.086"/>
	<rect x="402.406" y="23.66" fill="#FDFDFE" width="17.594" height="17.594"/>
	<rect x="398" y="402.43" fill="#FDFDFE" width="76" height="76"/>
	<rect x="81.667" y="412.43" fill="#FDFDFE" width="28" height="28"/>
</g>
<g id="Layer_4">
	<g>
		<path fill="#F9F9FA" d="M318.833,145.167c0,0,25.167,42.167,30.5,65.167c0,0,0.021,0.358,0.054,1.033
			c-4.596-1-17.301-3.22-37.721-2.7c-26.167,0.667-41,5.333-46.667,8.5c0,0-2.667-1.333-9.333-1.167
			c-6.667-0.167-9.333,1.167-9.333,1.167c-5.667-3.167-20.5-7.833-46.667-8.5C173.5,208,160,211.833,160,211.833h-15.167
			C141.5,214,143.5,225,143.5,225c12.667,1.667,12.5,20.667,15,33.5c2.5,12.833,12.833,22.333,46.167,22.333
			c33.333,0,41-37.667,42-43.5s9-6.167,9-6.167s8,0.333,9,6.167s8.667,43.5,42,43.5c24.803,0,36.866-5.262,42.449-13.241
			c-0.799,12.696-2.252,25.581-4.782,36.408c0,0-19,45-73.333,79.333L227.333,381c0,0-47.667-37-73.667-71.667
			C153.667,309.333,141,257,141,198l12.667-10c0,0,8.333-44.333,19-67.333h12.667c0,0-27-25-34.333-40l15-30.333
			c0,0-75,50.667-79.333,114l7.631-15.262c-2.31,4.833-14.35,33.445-1.631,81.595c14,53,40,59.333,40,59.333l11.667,1l5,18.333
			c0,0,5.137,5.844,12.788,14.396l2.298,50.381L150.333,397L126,419.333l148.667,75.333L358,435.333l-22.667-23.644L326.5,389
			l-2.571-45.102c11.454-13.329,21.579-27.64,25.737-40.231v-10c0,0,9.583,6.333,27.083-20.667S395,224.75,386,203.5l9.75-35.25
			C395.75,168.25,356.5,183.333,318.833,145.167z M230.167,266.167C220.64,280.669,182.5,280,172.75,271.75S157,251.25,161.5,224
			c0,0,5-9.5,19.25-11.75s36.75-1,51.75,5.875S239.693,251.665,230.167,266.167z M127.75,283.25c-20.5-14-35.083-52.583-33.25-65.75
			c1.833-13.167,11.75-8.25,11.75-8.25c-10,41.75,20.5,58,20.5,58c-23.25-24.283-11.5-46.75-11.5-46.75l26,57.25l1.75,9
			C136.75,286.123,127.75,283.25,127.75,283.25z M158.667,400.667l6.472-10.786l0.673,14.763L158.667,400.667z M313.384,427.793
			l-45.717,33.541l-94.574-52.638L170,349.75l26.204,11.263l0,0c10.799,11.474,20.852,21.7,26.796,26.654l53,3
			c0,0,9.362-7.692,21.499-19.23l18.251-11.186L313.384,427.793z M331.194,414.726l-11.121,8.159L321,397.25L331.194,414.726z
			 M354.667,211.667c0.62,0.024,1.207,0.086,1.778,0.167h-1.778C354.667,211.724,354.667,211.667,354.667,211.667z M349.736,254.313
			c-2.11,7.872-6.131,13.189-11.152,17.437c-9.75,8.25-47.89,8.919-57.417-5.583s-17.333-41.167-2.333-48.042
			s37.5-8.125,51.75-5.875c14.23,2.247,19.235,11.722,19.249,11.748C350.017,231.955,350.103,242.692,349.736,254.313z
			 M357.333,290.333l-5.667-2c1.218-9.202,1.941-23.568,2.371-37.389c1.668-11.677,3.457-24.584,13.796-25.944
			c0,0,0.042-0.234,0.103-0.631c3.225,16.249-5.937,42.298-5.937,42.298c15.667-12,13-42.667,13-42.667
			C389.667,271,357.333,290.333,357.333,290.333z"/>
		<path fill="#F9F9FA" d="M182,112.25c0,0-9.75-26.5-11-37l12.5-24.917c0,0,47.5-34.083,99.5-28.083c0,0-74.25-16.5-110.5,21.25
			L154.25,80C154.25,80,167.5,99.25,182,112.25z"/>
		<path fill="#F9F9FA" d="M390,135.25c-25.75,15-69.5-19.5-69.5-19.5c43.75,27.75,75.25,12,75.25,12c-5-7.25-14.5-18.25-14.5-18.25
			c-13.5,5-44.75-5.25-54.5-10s-25-9.5-25-9.5c15,1.75,29,9.5,43.75,13.75s34.5,0.75,34.5,0.75L365.25,85
			c-36.75,3.75-70.75-21.25-70.75-21.25c21.75,12.5,67,17.25,67,17.25l-49-46.5c-73-20.5-126.75,15.833-126.75,15.833l-12.5,26.417
			c7,31.25,25,45,25,45C192.75,104.5,196.5,77,196.5,77s31-27,60.25-29.75s66.25,13,66.25,13s-50.75-15.5-78.75-7.5
			S200.5,79,200.5,79c-6.641,42.011,13.75,46.5,13.75,46.5c-7.75-34.75,21.25-52.25,21.25-52.25c-33,24.5-8,53-8,53s10.5-8.5,26-22
			s41-13.5,41-13.5c-26.5,1.5-48,23.5-48,23.5c10.25,1,20.5-2.25,36.5-6.5s27.25,4.5,27.25,4.5c-15.5-10.25-35.25,4.5-35.25,4.5
			c18.5-2.75,33,14.25,54.25,32s55.706,21.902,66.5,14.75C406.544,156.348,390,135.25,390,135.25z"/>
		<path fill="#F9F9FA" d="M230,318.667c0,0-13.5-0.833-20-5.5C203.5,308.5,198.667,326.167,230,318.667z"/>
		<path fill="#F9F9FA" d="M294,310.667c-4,4.167-16.833,9.881-16.833,9.881C305.333,323.595,298,306.5,294,310.667z"/>
		<path fill="#F9F9FA" d="M228,204.333c12-1-15.797-24-66.065-2.667C161.935,201.667,216,205.333,228,204.333z"/>
		<path fill="#F9F9FA" d="M334.667,204.506c-3.963-5.168-18-9.839-36.74-9.839s-33.594,9-20.76,9.839
			C290,205.346,334.667,204.506,334.667,204.506z"/>
	</g>
</g>
</svg>
